<?xml version="1.0" standalone="no"?>
<!DOCTYPE svg PUBLIC "-//W3C//DTD SVG 20010904//EN"
 "http://www.w3.org/TR/2001/REC-SVG-20010904/DTD/svg10.dtd">
<svg version="1.0" xmlns="http://www.w3.org/2000/svg"
 width="256.000000pt" height="256.000000pt" viewBox="0 0 256.000000 256.000000"
 preserveAspectRatio="xMidYMid meet">
<metadata>
Created by potrace 1.11, written by Peter Selinger 2001-2013
</metadata>
<g transform="translate(0.000000,256.000000) scale(0.100000,-0.100000)"
fill="#000000" stroke="none">
<path d="M780 2445 l0 -115 65 0 65 0 0 50 0 50 525 0 525 0 0 -105 0 -105
110 0 110 0 0 -755 0 -755 -30 0 -30 0 0 -65 0 -65 95 0 95 0 0 850 0 850
-142 140 -143 139 -622 1 -623 0 0 -115z"/>
<path d="M510 2170 l0 -110 65 0 65 0 0 45 0 45 525 0 525 0 0 -105 0 -105
110 0 110 0 -2 -752 -3 -753 -27 -3 c-27 -3 -28 -5 -28 -68 l0 -64 90 0 90 0
0 859 0 859 -139 131 -139 131 -621 0 -621 0 0 -110z"/>
<path d="M250 990 l0 -990 765 0 765 0 0 853 0 852 -144 138 -144 137 -621 0
-621 0 0 -990z m1180 755 l0 -105 110 0 110 0 0 -755 0 -755 -635 0 -635 0 0
860 0 860 525 0 525 0 0 -105z"/>
<path d="M590 1433 c-35 -14 -42 -76 -11 -93 13 -6 168 -10 436 -10 268 0 423
4 436 10 13 7 19 21 19 45 0 24 -6 38 -19 45 -21 11 -833 13 -861 3z"/>
<path d="M572 1168 c-19 -19 -15 -66 7 -78 27 -14 845 -14 872 0 19 11 25 43
13 74 -5 14 -54 16 -443 16 -327 0 -440 -3 -449 -12z"/>
<path d="M572 938 c-7 -7 -12 -24 -12 -38 0 -14 5 -31 12 -38 17 -17 869 -17
886 0 15 15 15 61 0 76 -17 17 -869 17 -886 0z"/>
<path d="M572 688 c-7 -7 -12 -24 -12 -38 0 -14 5 -31 12 -38 17 -17 869 -17
886 0 15 15 15 61 0 76 -17 17 -869 17 -886 0z"/>
<path d="M550 441 c-15 -28 -12 -46 8 -64 17 -15 62 -17 444 -17 414 0 425 1
443 20 15 16 17 26 9 48 l-9 27 -442 3 c-429 2 -442 2 -453 -17z"/>
</g>
</svg>
